<?xml version="1.0" standalone="no"?>
<!DOCTYPE svg PUBLIC "-//W3C//DTD SVG 20010904//EN"
 "http://www.w3.org/TR/2001/REC-SVG-20010904/DTD/svg10.dtd">
<svg version="1.0" xmlns="http://www.w3.org/2000/svg"
 width="220.000000pt" height="220.000000pt" viewBox="0 0 220.000000 220.000000"
 preserveAspectRatio="xMidYMid meet">
<metadata>
Created by potrace 1.11, written by Peter Selinger 2001-2013
</metadata>
<g transform="translate(0.000000,220.000000) scale(0.100000,-0.100000)"
fill="#000000" stroke="none">
<path d="M1495 2079 c-102 -25 -205 -102 -260 -195 -67 -112 -72 -264 -14
-382 59 -119 168 -206 355 -283 220 -89 349 -198 394 -334 19 -56 20 -61 20
-140 1 -168 -107 -317 -269 -372 -65 -22 -76 -22 -557 -23 -456 0 -496 1 -552
19 -69 21 -155 68 -150 82 2 5 180 186 396 402 l393 393 -53 50 c-72 67 -130
106 -208 137 -175 69 -390 57 -550 -31 -118 -65 -238 -194 -287 -309 -73 -172
-67 -403 15 -558 97 -183 283 -322 467 -349 47 -7 921 -8 962 -1 15 2 48 6 74
9 187 19 380 172 449 359 60 161 41 356 -48 492 -49 76 -93 121 -177 185 -78
59 -98 70 -231 125 -224 93 -317 188 -317 325 0 250 318 340 455 129 17 -27
40 -51 50 -55 24 -7 128 35 128 53 0 31 -56 121 -102 166 -76 71 -160 107
-261 112 -45 2 -100 0 -122 -6z m-632 -784 c34 -7 137 -52 137 -60 0 -3 -148
-155 -329 -337 l-329 -331 -23 49 c-33 74 -47 135 -47 215 0 161 81 307 223
406 31 21 130 59 175 67 30 5 154 0 193 -9z"/>
</g>
</svg>
